<svg version="1.1" id="Layer_1" xmlns="http://www.w3.org/2000/svg" xmlns:xlink="http://www.w3.org/1999/xlink" x="0px" y="0px"
	 width="100%" viewBox="0 0 582 117" enable-background="new 0 0 582 117" xml:space="preserve">
<path fill="transparent" opacity="1.000000" stroke="none" 
	d="
M56.000000,118.000000 
	C37.666649,118.000000 19.333300,118.000000 1.000000,118.000000 
	C1.000000,115.963554 1.000000,113.979675 1.363847,111.527573 
	C3.783942,112.101021 5.865686,113.095695 7.891094,114.194237 
	C12.028136,116.438103 16.249706,116.733276 20.162119,114.030792 
	C27.742245,108.794868 36.259644,106.180847 45.197498,104.929626 
	C51.144936,104.097038 57.192425,103.979202 63.195129,103.541443 
	C56.869724,99.997940 50.013954,98.369629 43.191719,99.626907 
	C34.287773,101.267838 25.523460,103.861031 16.868845,106.584099 
	C12.018411,108.110222 7.864413,108.507912 3.999584,104.665283 
	C3.219231,103.889412 2.010976,103.543915 1.000000,103.000000 
	C1.000000,69.020523 1.000000,35.041046 1.000000,1.043412 
	C195.000000,1.043412 389.000000,1.043412 583.000000,1.043412 
	C583.000000,14.412111 583.000000,27.737396 582.688721,41.376263 
	C580.764526,41.534100 579.151550,41.378357 577.538635,41.222610 
	C578.029602,42.960022 578.190613,44.901974 579.104980,46.376877 
	C580.006287,47.830738 581.670471,48.811611 583.000000,50.000000 
	C583.000000,52.700012 583.000000,55.400028 582.644287,58.678047 
	C579.592651,60.164562 575.843811,60.516369 577.424805,64.666916 
	C577.808105,65.673172 581.064697,65.584946 583.000000,66.000000 
	C583.000000,83.319786 583.000000,100.639565 583.000000,118.000000 
	C413.979095,118.000000 244.958206,118.000000 75.296394,117.712852 
	C73.540840,116.202316 72.588882,114.748672 71.268852,113.816017 
	C69.748703,112.741989 67.903297,112.128342 66.199150,111.314751 
	C65.621452,112.898010 65.043747,114.481277 64.188034,116.826469 
	C62.254078,114.284256 60.610897,111.654411 58.474163,109.518250 
	C57.441139,108.485504 55.480804,108.380302 53.940331,107.855148 
	C53.771870,109.456985 53.196629,111.152176 53.537403,112.637154 
	C53.968166,114.514290 55.144981,116.220222 56.000000,118.000000 
M41.088474,35.057228 
	C38.319500,38.145866 41.103985,39.909599 42.873440,41.623833 
	C47.400478,46.009602 52.112015,50.204929 56.567039,54.308132 
	C55.432549,56.043240 55.143749,56.665455 54.697460,57.139359 
	C50.598785,61.491714 46.266979,65.649002 42.478138,70.253983 
	C41.316677,71.665634 41.621433,74.283630 41.254757,76.349205 
	C43.326851,75.679474 45.846516,75.536194 47.379772,74.232658 
	C50.786671,71.336212 53.837250,67.978233 56.780556,64.589081 
	C60.941807,59.797497 65.882637,58.583000 72.232750,58.792564 
	C88.196106,59.319386 104.193840,59.081375 120.168274,58.724133 
	C122.852356,58.664108 125.488823,56.475044 128.147293,55.269714 
	C125.249374,54.176163 122.364502,52.181095 119.451378,52.138973 
	C103.483978,51.908092 87.509407,52.125668 71.537857,52.256916 
	C66.317627,52.299812 61.558670,52.017200 57.991337,47.077290 
	C55.504662,43.633820 52.069466,40.777092 48.703842,38.104168 
	C46.747757,36.550678 44.092205,35.877922 41.088474,35.057228 
M516.931396,69.569092 
	C517.839783,70.540794 518.587708,71.788567 519.688904,72.428505 
	C522.223267,73.901291 526.882629,76.606598 527.254211,76.131729 
	C530.014648,72.603455 526.645203,69.969009 524.475281,67.866837 
	C520.447693,63.964901 515.862671,60.638302 511.414276,56.993900 
	C517.752808,50.316967 522.541687,45.471882 527.043640,40.373432 
	C528.023987,39.263149 527.977661,37.246292 528.404175,35.646976 
	C526.711853,35.632305 524.990234,35.426796 523.339050,35.680103 
	C522.458252,35.815228 521.612549,36.651798 520.899109,37.328011 
	C516.685486,41.321804 512.642639,45.508205 508.262726,49.307388 
	C506.695221,50.667103 504.357056,51.861538 502.356079,51.884857 
	C485.070160,52.086319 467.780945,51.990063 450.492737,52.014969 
	C446.776184,52.020325 442.775818,51.383392 439.755585,56.753002 
	C443.882446,57.580853 447.439270,58.850845 451.017242,58.913555 
	C464.819244,59.155457 478.709717,59.931496 492.407837,58.714352 
	C502.961304,57.776619 510.266449,61.350697 516.931396,69.569092 
M320.504028,94.681992 
	C322.328217,93.428108 324.152405,92.174232 326.490601,90.567055 
	C327.119446,93.687805 327.794952,96.537674 328.246338,99.422600 
	C328.691620,102.268456 330.121460,103.456787 333.017822,103.010971 
	C335.955170,102.558846 336.930542,101.007706 336.371277,98.119591 
	C335.234619,92.249763 334.378265,86.321815 333.091309,80.487343 
	C332.712738,78.771202 331.237732,75.945572 330.330048,75.970688 
	C328.255981,76.028076 325.908142,77.158501 324.253143,78.546585 
	C322.300385,80.184456 320.960999,82.553688 319.196198,84.809715 
	C316.548248,83.241837 314.419067,81.454964 311.971161,80.695801 
	C309.961426,80.072533 307.272095,80.064156 305.467010,80.959175 
	C304.413727,81.481445 303.932983,84.400604 304.186951,86.092453 
	C305.073578,91.999374 306.528412,97.819214 307.491699,103.717155 
	C308.004425,106.856483 309.729645,107.415733 312.402496,106.993996 
	C315.374023,106.525139 316.192719,104.872414 315.576813,102.014923 
	C314.886688,98.813095 314.488007,95.548439 313.851044,91.624306 
	C316.283813,92.805237 318.037659,93.656609 320.504028,94.681992 
M251.145645,75.677422 
	C245.765137,75.224808 241.245880,77.173645 238.042740,81.342644 
	C234.549225,85.889595 235.318176,94.740219 239.098938,99.088135 
	C242.543091,103.048943 251.039719,104.803558 256.178040,102.615059 
	C261.191467,100.479759 264.299988,93.972404 263.776978,87.633141 
	C263.193909,80.566269 257.919922,76.202087 251.145645,75.677422 
M378.602509,49.332645 
	C378.602509,51.580139 378.602509,53.827633 378.602509,56.120659 
	C376.481018,56.120659 373.866699,55.618690 371.575653,56.264172 
	C369.358032,56.888966 367.113403,58.388748 365.626495,60.138157 
	C365.065125,60.798618 366.253876,63.483894 367.230225,64.817619 
	C370.770508,69.653656 374.630859,74.254181 378.224487,79.052841 
	C380.100525,81.558006 381.933960,81.316040 384.147491,79.655975 
	C386.359039,77.997398 386.431000,76.272934 384.803314,74.135017 
	C382.650757,71.307762 380.643768,68.369682 378.303345,65.100914 
	C383.672791,64.625328 387.894104,64.660309 390.936951,69.253647 
	C391.626556,70.294624 394.770142,70.633423 396.258698,70.020126 
	C398.955627,68.908981 398.884949,66.539772 397.146484,64.255898 
	C393.314117,59.221226 389.531250,54.148838 385.699036,49.114056 
	C383.675262,46.455200 381.475616,46.044071 378.602509,49.332645 
M188.775162,74.272964 
	C193.476440,69.345665 198.241623,64.476936 202.842087,59.457245 
	C204.322952,57.841427 206.437454,56.013783 203.826172,53.548309 
	C201.635986,51.480404 199.460236,50.463833 197.065155,53.281395 
	C196.686188,53.727200 196.049500,53.953938 195.157608,54.519264 
	C194.721405,51.497078 194.838425,48.696495 193.829315,46.388206 
	C192.921112,44.310715 191.020630,42.360397 189.056992,41.205498 
	C188.297363,40.758728 185.860352,42.359150 184.705032,43.535290 
	C180.632828,47.680847 176.901276,52.162312 172.806931,56.284351 
	C170.484390,58.622593 170.665482,60.456093 172.846588,62.602516 
	C175.070328,64.790878 176.881287,64.153824 178.744171,62.100868 
	C181.115067,59.488102 183.592499,56.972027 186.024002,54.414268 
	C186.672180,54.731236 187.320358,55.048203 187.968552,55.365170 
	C186.968521,59.080784 186.766312,63.308846 184.784698,66.393967 
	C181.679199,71.228851 181.950378,72.883308 188.775162,74.272964 
M299.213776,20.972660 
	C299.203644,26.959467 299.215332,32.946430 299.172760,38.933006 
	C299.155579,41.345291 299.017090,43.740414 302.347473,44.071831 
	C305.131165,44.348858 307.206818,43.963936 307.622284,40.457130 
	C307.743011,39.438194 309.386627,38.148132 310.546326,37.867523 
	C311.281403,37.689663 313.020172,38.983994 313.265472,39.898056 
	C314.708252,45.274502 318.323242,44.526661 322.387085,43.570072 
	C322.253937,42.562035 322.246582,41.727783 322.024292,40.955395 
	C320.949524,37.221275 319.551270,33.952126 322.661682,29.938303 
	C325.322083,26.505171 322.270538,18.389992 318.299713,17.707365 
	C312.819122,16.765192 307.098511,17.093939 301.486267,17.193089 
	C300.740448,17.206266 300.027283,19.065516 299.213776,20.972660 
M269.742249,35.232494 
	C268.509430,33.336426 266.634613,31.575737 266.199310,29.511494 
	C265.597015,26.655214 266.106750,23.570267 266.086853,20.583599 
	C266.069214,17.941273 264.824982,16.739000 262.050018,16.816765 
	C259.498749,16.888260 257.842651,17.559076 257.877777,20.438860 
	C257.928253,24.578817 257.668579,28.745077 258.047028,32.853527 
	C258.703064,39.976032 263.259857,43.759819 270.864899,43.994095 
	C278.474365,44.228512 284.004822,40.295685 284.915344,33.489891 
	C285.462402,29.400934 285.334442,25.213331 285.379944,21.068634 
	C285.408630,18.453609 284.583679,16.705393 281.329315,16.792223 
	C278.039032,16.880011 276.895996,18.377974 276.988525,21.414459 
	C277.059296,23.736347 276.949524,26.063360 277.001160,28.386290 
	C277.099457,32.807125 275.132019,35.288620 269.742249,35.232494 
M355.418793,95.029861 
	C358.152100,93.832764 360.982697,92.812935 363.588379,91.383202 
	C365.721283,90.212860 369.709900,90.282845 367.967468,85.846390 
	C366.238373,81.443832 363.427032,83.243111 360.648987,84.379593 
	C358.878235,85.103989 357.073364,85.745094 354.896057,86.570541 
	C355.139832,81.848480 364.023529,83.175018 359.837555,77.703453 
	C358.660553,76.164978 354.298065,77.063545 350.865021,76.804123 
	C351.067291,76.377487 351.241180,75.223564 351.888977,74.807327 
	C353.264038,73.923836 354.939575,73.524323 356.393372,72.743042 
	C358.336578,71.698761 361.065735,71.112808 359.729126,67.767723 
	C358.434174,64.526939 356.260620,64.818840 353.704773,66.049248 
	C350.568787,67.558922 347.471649,69.197136 344.217682,70.401421 
	C340.406250,71.812027 340.103455,74.182022 341.592590,77.426285 
	C344.012207,82.697769 346.478027,87.950409 348.766571,93.278763 
	C350.063354,96.297997 352.004364,96.732811 355.418793,95.029861 
M238.667160,17.131657 
	C234.184616,17.040699 229.694794,17.076420 225.221848,16.818750 
	C221.634705,16.612108 220.530716,18.380291 220.559082,21.601528 
	C220.613251,27.753658 220.370590,33.917336 220.706421,40.051289 
	C220.783112,41.452148 222.470642,43.487144 223.839035,43.932289 
	C226.114426,44.672501 228.333725,44.094532 228.917953,40.837685 
	C229.145126,39.571411 230.601624,38.233791 231.838287,37.509125 
	C233.676788,36.431782 235.845139,35.934128 237.824585,35.077621 
	C246.485046,31.330221 247.226349,23.198082 238.667160,17.131657 
M170.220810,30.664701 
	C171.290894,30.646971 172.843842,30.176399 173.335754,30.700912 
	C174.553818,31.999680 174.982986,34.113956 176.299744,35.223232 
	C177.614655,36.330952 179.623001,36.615540 181.327347,37.260979 
	C181.679825,35.429016 182.848328,33.233364 182.225555,31.836063 
	C180.619675,28.232971 178.120316,25.039837 176.173370,21.573137 
	C174.720657,18.986431 172.901672,18.487038 170.460617,19.976892 
	C164.799744,23.431892 159.109665,26.844397 153.561752,30.473379 
	C152.729813,31.017563 151.892685,33.018005 152.258911,33.697464 
	C155.120026,39.005627 158.274780,44.155525 161.308304,49.302433 
	C167.886475,45.701069 167.881256,45.649200 164.766510,40.259506 
	C163.777344,38.547909 162.954880,36.739979 162.056122,34.976128 
	C162.541290,34.720795 163.026443,34.465462 163.511597,34.210129 
	C164.364929,35.313065 165.342545,36.342861 166.044113,37.535099 
	C167.271439,39.620869 168.457138,40.978504 171.133743,39.349598 
	C173.831589,37.707760 173.138580,35.980572 171.834686,33.973099 
	C171.294464,33.141346 170.866882,32.236427 170.220810,30.664701 
M342.800354,16.990034 
	C338.713501,16.505184 336.921875,18.317087 337.160034,22.415911 
	C337.294922,24.736765 337.083527,27.075535 337.140869,29.403460 
	C337.526276,45.049782 337.535522,45.039738 353.432953,44.152748 
	C355.714996,44.025421 357.788177,43.945583 357.833252,40.768543 
	C357.877502,37.650047 356.292877,36.790966 353.498016,36.711494 
	C350.986755,36.640087 348.487122,36.159279 345.982391,35.859066 
	C346.031128,35.374878 346.079834,34.890694 346.128571,34.406506 
	C347.385071,34.274456 348.644531,34.010395 349.897430,34.038494 
	C352.324371,34.092930 354.155914,33.770348 354.148254,30.636717 
	C354.140778,27.587553 352.434052,27.192516 349.958221,27.110510 
	C348.547913,27.063797 347.161041,26.308626 345.763611,25.872475 
	C345.880127,25.264725 345.996613,24.656977 346.113129,24.049227 
	C348.844666,24.049227 351.638641,24.389555 354.281219,23.904734 
	C355.589905,23.664640 357.748108,21.562193 357.547546,20.903378 
	C357.092072,19.407177 355.553223,17.391794 354.206635,17.182259 
	C350.788635,16.650406 347.234222,16.995443 342.800354,16.990034 
M202.153915,80.259132 
	C202.857620,82.093796 203.087952,84.395821 204.352570,85.676697 
	C208.368988,89.744751 213.616196,91.530579 218.990295,89.558395 
	C226.805389,86.690407 229.780548,79.017281 231.843094,72.128433 
	C233.128174,67.836349 226.162552,67.934395 223.341751,65.475105 
	C222.732941,64.944328 221.859024,64.730576 221.155396,64.293259 
	C218.937332,62.914646 217.011505,62.264229 215.452301,65.313164 
	C214.096710,67.963951 213.972061,69.960960 217.001190,71.447098 
	C218.443329,72.154625 219.722687,73.193954 221.421631,74.310219 
	C220.421783,76.185257 219.814438,77.953331 218.696259,79.295921 
	C216.006210,82.525795 211.125595,81.801323 210.055573,77.798294 
	C209.307831,75.000954 208.008209,74.414871 205.526917,74.545135 
	C202.166290,74.721565 202.066788,77.022438 202.153915,80.259132 
M392.514191,34.001701 
	C391.362793,35.624611 390.256134,37.281704 389.048706,38.861813 
	C387.517975,40.865044 387.141052,42.531502 389.555878,44.302032 
	C391.980255,46.079548 393.894897,46.461632 395.777130,43.664265 
	C396.749359,42.219322 397.998810,40.960884 399.241608,39.476521 
	C403.494385,42.444397 407.340912,45.034431 411.078369,47.773300 
	C413.232147,49.351620 415.074860,50.081738 416.934082,47.390667 
	C418.616180,44.955975 418.811615,42.991451 416.075775,41.090092 
	C412.158691,38.367767 408.397797,35.420773 404.397369,32.440968 
	C405.464661,30.696327 406.349609,29.317120 407.166260,27.898590 
	C408.311829,25.908682 409.068298,24.104843 406.434906,22.416086 
	C403.916412,20.801023 401.965240,20.560705 400.118744,23.260288 
	C397.779572,26.680235 395.330505,30.025032 392.514191,34.001701 
M271.703644,83.515518 
	C275.365601,89.545334 280.368683,95.060234 278.860229,103.018852 
	C278.325287,105.841103 279.019653,107.922127 282.487701,108.144592 
	C286.238281,108.385185 287.270142,106.119278 286.927032,103.151337 
	C286.237549,97.187134 288.826447,92.585678 292.313202,88.177963 
	C293.853607,86.230637 295.114227,84.061951 296.640137,81.787674 
	C290.120422,79.667648 285.682800,80.604507 283.616547,87.726418 
	C282.255737,85.280792 281.805603,83.259781 280.593689,82.562126 
	C278.483246,81.347221 275.935638,80.744843 273.496246,80.353966 
	C272.903809,80.259033 272.019287,81.986900 271.703644,83.515518 
M530.651672,46.166332 
	C528.612427,48.095284 526.442261,49.906075 524.567810,51.983688 
	C522.327515,54.466774 522.476013,57.084511 524.897156,59.468994 
	C528.673401,63.188099 532.293213,67.096848 536.346741,70.485886 
	C537.646790,71.572800 540.108215,71.270569 542.038391,71.603897 
	C541.733582,69.807518 542.000671,67.567772 541.016418,66.298111 
	C538.100159,62.536194 534.690247,59.156933 531.302246,55.440243 
	C534.698303,51.856739 538.131653,48.496658 541.206360,44.835381 
	C542.176086,43.680588 542.185303,41.719074 542.634094,40.126778 
	C540.835327,40.039997 538.617493,39.250828 537.329041,40.019459 
	C534.983704,41.418564 533.190125,43.742474 530.651672,46.166332 
M45.286663,57.653034 
	C45.164478,56.073132 45.660496,53.918541 44.815998,53.010113 
	C40.542477,48.413040 36.047676,43.993526 31.311640,39.878704 
	C30.382996,39.071865 28.048258,39.883400 26.362030,39.948524 
	C26.720814,41.571754 26.544476,43.730453 27.535597,44.720936 
	C30.930269,48.113415 34.734634,51.095940 38.622818,54.441345 
	C34.278740,59.062248 30.895250,62.246449 28.075499,65.869408 
	C26.980680,67.276085 27.159369,69.673927 26.757933,71.620262 
	C28.834398,71.188309 31.474976,71.412102 32.881866,70.201805 
	C37.152859,66.527634 40.946754,62.298855 45.286663,57.653034 
M25.860575,51.795944 
	C23.937786,48.503578 20.858860,46.959602 17.454014,48.249382 
	C15.275807,49.074497 12.442635,51.400505 12.205789,53.335499 
	C11.880733,55.991142 12.962777,59.848568 14.888931,61.444405 
	C16.620810,62.879280 20.711546,62.883377 23.036100,61.863899 
	C26.784967,60.219765 27.626085,56.485706 25.860575,51.795944 
M557.061218,53.876129 
	C555.068787,51.911800 553.401062,49.043468 551.011353,48.184921 
	C546.942261,46.722996 542.631287,50.231495 542.053650,54.509068 
	C541.499634,58.611248 544.469482,62.499207 548.575500,63.047371 
	C553.576172,63.714977 556.711792,60.653130 557.061218,53.876129 
M53.906063,31.389685 
	C58.761951,36.349606 63.525501,41.407192 68.565514,46.172367 
	C69.396080,46.957645 71.521660,46.762684 72.876976,46.392254 
	C73.351387,46.262589 73.898155,43.684162 73.412399,43.172077 
	C68.199265,37.676460 63.102055,31.986073 57.275623,27.197706 
	C54.858936,25.211580 51.937523,26.486944 53.906063,31.389685 
M79.665977,41.829540 
	C81.368164,43.403973 82.890343,45.286671 84.845284,46.428268 
	C85.888908,47.037701 87.915169,46.765182 89.031822,46.103771 
	C89.573021,45.783215 89.583549,43.145786 88.907768,42.419937 
	C84.180229,37.342075 79.326973,32.362473 74.212738,27.680429 
	C73.270981,26.818253 70.957901,27.453981 69.277779,27.398325 
	C69.593697,28.936577 69.430679,30.871136 70.314621,31.939352 
	C73.051437,35.246704 76.186722,38.224323 79.665977,41.829540 
M87.548203,33.816376 
	C91.558128,37.774090 95.432770,41.886692 99.668221,45.586216 
	C100.799835,46.574635 103.034424,46.300304 104.762642,46.605698 
	C104.626526,44.886192 105.131470,42.649094 104.237305,41.541618 
	C101.232071,37.819466 97.793251,34.434338 94.385811,31.055923 
	C92.871750,29.554770 91.160873,28.144249 89.295837,27.148783 
	C88.308167,26.621618 86.429840,26.606035 85.642632,27.229500 
	C85.022057,27.720991 85.234200,29.591759 85.491669,30.758278 
	C85.690720,31.660103 86.532890,32.419979 87.548203,33.816376 
M482.211548,32.564636 
	C482.913605,30.878298 483.615662,29.191961 484.317719,27.505627 
	C483.976929,27.125994 483.636139,26.746361 483.295349,26.366730 
	C481.533752,26.891077 479.311523,26.912264 478.091980,28.028700 
	C473.340912,32.378094 468.785706,36.964127 464.459198,41.735516 
	C463.594299,42.689369 464.052277,44.842773 463.900269,46.443062 
	C465.630005,46.211117 467.905640,46.598408 468.993958,45.638912 
	C473.458588,41.702667 477.561615,37.356243 482.211548,32.564636 
M92.915718,82.481133 
	C96.630371,78.681847 100.505157,75.020004 103.958672,70.996567 
	C104.949615,69.842094 104.723389,67.642868 105.055244,65.922668 
	C103.331680,66.042343 101.045326,65.498482 99.983864,66.398773 
	C95.819672,69.930702 91.780006,73.694374 88.239410,77.837944 
	C86.656998,79.689842 86.364769,82.644180 85.487022,85.098198 
	C87.785751,84.388428 90.084473,83.678658 92.915718,82.481133 
M84.947586,74.423340 
	C86.203888,73.099739 87.850372,71.962158 88.597221,70.395668 
	C89.233437,69.061226 88.834335,67.233170 88.893250,65.623482 
	C87.418373,65.735077 85.404839,65.266655 84.557281,66.053749 
	C79.585358,70.671036 74.758934,75.466682 70.205376,80.493790 
	C69.334633,81.455086 69.901199,83.718307 69.804665,85.380882 
	C71.328590,85.106781 73.269203,85.330940 74.300842,84.468185 
	C77.856186,81.494865 81.094116,78.141998 84.947586,74.423340 
M492.050751,29.537594 
	C487.962402,33.862900 483.780701,38.107079 479.879730,42.595234 
	C479.247131,43.323036 479.358246,45.651318 480.031799,46.302364 
	C480.761261,47.007534 483.128082,47.226612 483.787994,46.604515 
	C488.959747,41.729294 493.973938,36.676468 498.820099,31.476549 
	C499.626526,30.611259 499.380920,28.765509 499.621490,27.372828 
	C498.072357,27.348593 496.487000,27.117086 494.987915,27.379160 
	C494.111908,27.532299 493.373749,28.473881 492.050751,29.537594 
M70.722939,64.849678 
	C65.197456,70.027084 59.560352,75.094749 54.256138,80.489700 
	C53.370117,81.390884 53.930141,83.713783 53.821972,85.379723 
	C55.347942,85.112984 57.362991,85.374931 58.318237,84.491249 
	C63.420506,79.771217 68.375832,74.875458 73.130859,69.804985 
	C75.119591,67.684334 73.867485,65.852341 70.722939,64.849678 
M474.462860,81.064629 
	C475.450378,81.951630 476.302704,83.142914 477.456543,83.655586 
	C479.266388,84.459724 481.279755,84.805824 483.206909,85.345917 
	C482.763855,83.284531 482.974060,80.648148 481.758301,79.266922 
	C477.714996,74.673401 473.274445,70.402222 468.708344,66.318092 
	C467.731995,65.444756 465.587585,65.877251 463.981293,65.708176 
	C464.179596,67.446938 463.762573,69.683586 464.691315,70.831276 
	C467.500000,74.302132 470.830658,77.350578 474.462860,81.064629 
M509.815765,37.306156 
	C511.254974,35.706684 512.990662,34.278114 514.041748,32.454891 
	C514.918335,30.934296 514.992371,28.950996 515.421814,27.172619 
	C513.582520,27.438030 511.157928,27.050369 510.005951,28.082748 
	C505.209259,32.381256 500.672852,36.996067 496.347778,41.772614 
	C495.505005,42.703335 496.029877,44.872398 495.923889,46.470261 
	C497.634888,46.219170 499.773834,46.526295 500.972687,45.607182 
	C503.980225,43.301468 506.562408,40.440937 509.815765,37.306156 
M483.533630,73.925545 
	C487.092926,77.392036 490.520203,81.013390 494.293182,84.229179 
	C495.403503,85.175560 497.492615,84.973572 499.133148,85.297852 
	C498.893219,83.508690 499.277039,81.200996 498.299438,80.025078 
	C495.025452,76.086838 491.408905,72.396477 487.633606,68.926651 
	C485.576416,67.035904 483.338348,62.758724 480.107544,65.898224 
	C476.633484,69.274063 481.483429,71.062057 483.533630,73.925545 
M502.587097,67.782822 
	C502.075684,67.362053 501.620697,66.702156 501.042236,66.565620 
	C499.351471,66.166557 497.611420,65.976242 495.890686,65.704117 
	C496.221252,67.557220 495.929810,69.958542 496.993530,71.165497 
	C500.926880,75.628387 505.154785,79.870529 509.618347,83.802414 
	C510.875763,84.910057 513.317261,84.673508 515.215637,85.053505 
	C514.769470,83.134087 514.896912,80.735107 513.768799,79.385872 
	C510.486298,75.459930 506.701141,71.954216 502.587097,67.782822 
z"/>
<path fill="#423A30" opacity="1.000000" stroke="none" 
	d="
M1.000000,103.444168 
	C2.010976,103.543915 3.219231,103.889412 3.999584,104.665283 
	C7.864413,108.507912 12.018411,108.110222 16.868845,106.584099 
	C25.523460,103.861031 34.287773,101.267838 43.191719,99.626907 
	C50.013954,98.369629 56.869724,99.997940 63.195129,103.541443 
	C57.192425,103.979202 51.144936,104.097038 45.197498,104.929626 
	C36.259644,106.180847 27.742245,108.794868 20.162119,114.030792 
	C16.249706,116.733276 12.028136,116.438103 7.891094,114.194237 
	C5.865686,113.095695 3.783942,112.101021 1.363847,111.029671 
	C1.000000,108.629440 1.000000,106.258888 1.000000,103.444168 
z"/>
<path fill="#423A30" opacity="1.000000" stroke="none" 
	d="
M56.468269,118.000000 
	C55.144981,116.220222 53.968166,114.514290 53.537403,112.637154 
	C53.196629,111.152176 53.771870,109.456985 53.940331,107.855148 
	C55.480804,108.380302 57.441139,108.485504 58.474163,109.518250 
	C60.610897,111.654411 62.254078,114.284256 64.188034,116.826469 
	C65.043747,114.481277 65.621452,112.898010 66.199150,111.314751 
	C67.903297,112.128342 69.748703,112.741989 71.268852,113.816017 
	C72.588882,114.748672 73.540840,116.202316 74.827736,117.712852 
	C68.978851,118.000000 62.957695,118.000000 56.468269,118.000000 
z"/>
<path fill="#423A30" opacity="1.000000" stroke="none" 
	d="
M583.000000,65.562500 
	C581.064697,65.584946 577.808105,65.673172 577.424805,64.666916 
	C575.843811,60.516369 579.592651,60.164562 582.644287,59.128025 
	C583.000000,61.041668 583.000000,63.083332 583.000000,65.562500 
z"/>
<path fill="#423A30" opacity="1.000000" stroke="none" 
	d="
M583.000000,49.555836 
	C581.670471,48.811611 580.006287,47.830738 579.104980,46.376877 
	C578.190613,44.901974 578.029602,42.960022 577.538635,41.222610 
	C579.151550,41.378357 580.764526,41.534100 582.688721,41.844921 
	C583.000000,44.370556 583.000000,46.741116 583.000000,49.555836 
z"/>
<path fill="#423A30" opacity="1.000000" stroke="none" 
	d="
M41.419933,34.933044 
	C44.092205,35.877922 46.747757,36.550678 48.703842,38.104168 
	C52.069466,40.777092 55.504662,43.633820 57.991337,47.077290 
	C61.558670,52.017200 66.317627,52.299812 71.537857,52.256916 
	C87.509407,52.125668 103.483978,51.908092 119.451378,52.138973 
	C122.364502,52.181095 125.249374,54.176163 128.147293,55.269714 
	C125.488823,56.475044 122.852356,58.664108 120.168274,58.724133 
	C104.193840,59.081375 88.196106,59.319386 72.232750,58.792564 
	C65.882637,58.583000 60.941807,59.797497 56.780556,64.589081 
	C53.837250,67.978233 50.786671,71.336212 47.379772,74.232658 
	C45.846516,75.536194 43.326851,75.679474 41.254757,76.349205 
	C41.621433,74.283630 41.316677,71.665634 42.478138,70.253983 
	C46.266979,65.649002 50.598785,61.491714 54.697460,57.139359 
	C55.143749,56.665455 55.432549,56.043240 56.567039,54.308132 
	C52.112015,50.204929 47.400478,46.009602 42.873440,41.623833 
	C41.103985,39.909599 38.319500,38.145866 41.419933,34.933044 
z"/>
<path fill="#423A30" opacity="1.000000" stroke="none" 
	d="
M516.690552,69.311996 
	C510.266449,61.350697 502.961304,57.776619 492.407837,58.714352 
	C478.709717,59.931496 464.819244,59.155457 451.017242,58.913555 
	C447.439270,58.850845 443.882446,57.580853 439.755585,56.753002 
	C442.775818,51.383392 446.776184,52.020325 450.492737,52.014969 
	C467.780945,51.990063 485.070160,52.086319 502.356079,51.884857 
	C504.357056,51.861538 506.695221,50.667103 508.262726,49.307388 
	C512.642639,45.508205 516.685486,41.321804 520.899109,37.328011 
	C521.612549,36.651798 522.458252,35.815228 523.339050,35.680103 
	C524.990234,35.426796 526.711853,35.632305 528.404175,35.646976 
	C527.977661,37.246292 528.023987,39.263149 527.043640,40.373432 
	C522.541687,45.471882 517.752808,50.316967 511.414276,56.993900 
	C515.862671,60.638302 520.447693,63.964901 524.475281,67.866837 
	C526.645203,69.969009 530.014648,72.603455 527.254211,76.131729 
	C526.882629,76.606598 522.223267,73.901291 519.688904,72.428505 
	C518.587708,71.788567 517.839783,70.540794 516.690552,69.311996 
z"/>
<path fill="#423A30" opacity="1.000000" stroke="none" 
	d="
M320.147766,94.594986 
	C318.037659,93.656609 316.283813,92.805237 313.851044,91.624306 
	C314.488007,95.548439 314.886688,98.813095 315.576813,102.014923 
	C316.192719,104.872414 315.374023,106.525139 312.402496,106.993996 
	C309.729645,107.415733 308.004425,106.856483 307.491699,103.717155 
	C306.528412,97.819214 305.073578,91.999374 304.186951,86.092453 
	C303.932983,84.400604 304.413727,81.481445 305.467010,80.959175 
	C307.272095,80.064156 309.961426,80.072533 311.971161,80.695801 
	C314.419067,81.454964 316.548248,83.241837 319.196198,84.809715 
	C320.960999,82.553688 322.300385,80.184456 324.253143,78.546585 
	C325.908142,77.158501 328.255981,76.028076 330.330048,75.970688 
	C331.237732,75.945572 332.712738,78.771202 333.091309,80.487343 
	C334.378265,86.321815 335.234619,92.249763 336.371277,98.119591 
	C336.930542,101.007706 335.955170,102.558846 333.017822,103.010971 
	C330.121460,103.456787 328.691620,102.268456 328.246338,99.422600 
	C327.794952,96.537674 327.119446,93.687805 326.490601,90.567055 
	C324.152405,92.174232 322.328217,93.428108 320.147766,94.594986 
z"/>
<path fill="#423A30" opacity="1.000000" stroke="none" 
	d="
M251.532654,75.727646 
	C257.919922,76.202087 263.193909,80.566269 263.776978,87.633141 
	C264.299988,93.972404 261.191467,100.479759 256.178040,102.615059 
	C251.039719,104.803558 242.543091,103.048943 239.098938,99.088135 
	C235.318176,94.740219 234.549225,85.889595 238.042740,81.342644 
	C241.245880,77.173645 245.765137,75.224808 251.532654,75.727646 
M244.692459,91.079384 
	C245.841721,94.594246 248.699326,96.005730 251.575699,94.423576 
	C253.587906,93.316757 255.128036,90.402885 255.657074,88.024323 
	C255.863251,87.097359 252.890427,84.670708 251.064178,84.256653 
	C247.719193,83.498299 245.490555,85.522308 244.699402,88.902527 
	C244.588455,89.376640 244.583008,89.875435 244.692459,91.079384 
z"/>
<path fill="#423A30" opacity="1.000000" stroke="none" 
	d="
M378.870911,49.050117 
	C381.475616,46.044071 383.675262,46.455200 385.699036,49.114056 
	C389.531250,54.148838 393.314117,59.221226 397.146484,64.255898 
	C398.884949,66.539772 398.955627,68.908981 396.258698,70.020126 
	C394.770142,70.633423 391.626556,70.294624 390.936951,69.253647 
	C387.894104,64.660309 383.672791,64.625328 378.303345,65.100914 
	C380.643768,68.369682 382.650757,71.307762 384.803314,74.135017 
	C386.431000,76.272934 386.359039,77.997398 384.147491,79.655975 
	C381.933960,81.316040 380.100525,81.558006 378.224487,79.052841 
	C374.630859,74.254181 370.770508,69.653656 367.230225,64.817619 
	C366.253876,63.483894 365.065125,60.798618 365.626495,60.138157 
	C367.113403,58.388748 369.358032,56.888966 371.575653,56.264172 
	C373.866699,55.618690 376.481018,56.120659 378.602509,56.120659 
	C378.602509,53.827633 378.602509,51.580139 378.870911,49.050117 
z"/>
<path fill="#423A30" opacity="1.000000" stroke="none" 
	d="
M188.464172,74.436096 
	C181.950378,72.883308 181.679199,71.228851 184.784698,66.393967 
	C186.766312,63.308846 186.968521,59.080784 187.968552,55.365170 
	C187.320358,55.048203 186.672180,54.731236 186.024002,54.414268 
	C183.592499,56.972027 181.115067,59.488102 178.744171,62.100868 
	C176.881287,64.153824 175.070328,64.790878 172.846588,62.602516 
	C170.665482,60.456093 170.484390,58.622593 172.806931,56.284351 
	C176.901276,52.162312 180.632828,47.680847 184.705032,43.535290 
	C185.860352,42.359150 188.297363,40.758728 189.056992,41.205498 
	C191.020630,42.360397 192.921112,44.310715 193.829315,46.388206 
	C194.838425,48.696495 194.721405,51.497078 195.157608,54.519264 
	C196.049500,53.953938 196.686188,53.727200 197.065155,53.281395 
	C199.460236,50.463833 201.635986,51.480404 203.826172,53.548309 
	C206.437454,56.013783 204.322952,57.841427 202.842087,59.457245 
	C198.241623,64.476936 193.476440,69.345665 188.464172,74.436096 
z"/>
<path fill="#423A30" opacity="1.000000" stroke="none" 
	d="
M299.256378,20.521244 
	C300.027283,19.065516 300.740448,17.206266 301.486267,17.193089 
	C307.098511,17.093939 312.819122,16.765192 318.299713,17.707365 
	C322.270538,18.389992 325.322083,26.505171 322.661682,29.938303 
	C319.551270,33.952126 320.949524,37.221275 322.024292,40.955395 
	C322.246582,41.727783 322.253937,42.562035 322.387085,43.570072 
	C318.323242,44.526661 314.708252,45.274502 313.265472,39.898056 
	C313.020172,38.983994 311.281403,37.689663 310.546326,37.867523 
	C309.386627,38.148132 307.743011,39.438194 307.622284,40.457130 
	C307.206818,43.963936 305.131165,44.348858 302.347473,44.071831 
	C299.017090,43.740414 299.155579,41.345291 299.172760,38.933006 
	C299.215332,32.946430 299.203644,26.959467 299.256378,20.521244 
M311.275177,29.858017 
	C311.968414,29.405088 313.113190,29.067822 313.264740,28.476139 
	C313.625854,27.066326 314.141235,24.839003 313.450409,24.221390 
	C312.460541,23.336395 309.617645,22.866066 309.054871,23.513300 
	C307.951233,24.782654 307.685913,26.929638 307.533722,28.751850 
	C307.503296,29.115973 309.527283,29.651680 311.275177,29.858017 
z"/>
<path fill="#423A30" opacity="1.000000" stroke="none" 
	d="
M270.155640,35.328247 
	C275.132019,35.288620 277.099457,32.807125 277.001160,28.386290 
	C276.949524,26.063360 277.059296,23.736347 276.988525,21.414459 
	C276.895996,18.377974 278.039032,16.880011 281.329315,16.792223 
	C284.583679,16.705393 285.408630,18.453609 285.379944,21.068634 
	C285.334442,25.213331 285.462402,29.400934 284.915344,33.489891 
	C284.004822,40.295685 278.474365,44.228512 270.864899,43.994095 
	C263.259857,43.759819 258.703064,39.976032 258.047028,32.853527 
	C257.668579,28.745077 257.928253,24.578817 257.877777,20.438860 
	C257.842651,17.559076 259.498749,16.888260 262.050018,16.816765 
	C264.824982,16.739000 266.069214,17.941273 266.086853,20.583599 
	C266.106750,23.570267 265.597015,26.655214 266.199310,29.511494 
	C266.634613,31.575737 268.509430,33.336426 270.155640,35.328247 
z"/>
<path fill="#423A30" opacity="1.000000" stroke="none" 
	d="
M355.062805,95.189072 
	C352.004364,96.732811 350.063354,96.297997 348.766571,93.278763 
	C346.478027,87.950409 344.012207,82.697769 341.592590,77.426285 
	C340.103455,74.182022 340.406250,71.812027 344.217682,70.401421 
	C347.471649,69.197136 350.568787,67.558922 353.704773,66.049248 
	C356.260620,64.818840 358.434174,64.526939 359.729126,67.767723 
	C361.065735,71.112808 358.336578,71.698761 356.393372,72.743042 
	C354.939575,73.524323 353.264038,73.923836 351.888977,74.807327 
	C351.241180,75.223564 351.067291,76.377487 350.865021,76.804123 
	C354.298065,77.063545 358.660553,76.164978 359.837555,77.703453 
	C364.023529,83.175018 355.139832,81.848480 354.896057,86.570541 
	C357.073364,85.745094 358.878235,85.103989 360.648987,84.379593 
	C363.427032,83.243111 366.238373,81.443832 367.967468,85.846390 
	C369.709900,90.282845 365.721283,90.212860 363.588379,91.383202 
	C360.982697,92.812935 358.152100,93.832764 355.062805,95.189072 
z"/>
<path fill="#423A30" opacity="1.000000" stroke="none" 
	d="
M239.062347,17.271549 
	C247.226349,23.198082 246.485046,31.330221 237.824585,35.077621 
	C235.845139,35.934128 233.676788,36.431782 231.838287,37.509125 
	C230.601624,38.233791 229.145126,39.571411 228.917953,40.837685 
	C228.333725,44.094532 226.114426,44.672501 223.839035,43.932289 
	C222.470642,43.487144 220.783112,41.452148 220.706421,40.051289 
	C220.370590,33.917336 220.613251,27.753658 220.559082,21.601528 
	C220.530716,18.380291 221.634705,16.612108 225.221848,16.818750 
	C229.694794,17.076420 234.184616,17.040699 239.062347,17.271549 
M228.800873,28.133316 
	C229.034866,28.889904 229.268845,29.646494 229.502838,30.403090 
	C231.530716,29.243196 233.558594,28.083302 235.586456,26.923403 
	C234.622284,25.681244 233.872040,23.692759 232.652054,23.343060 
	C229.544052,22.452181 228.545563,24.485720 228.800873,28.133316 
z"/>
<path fill="#423A30" opacity="1.000000" stroke="none" 
	d="
M170.304443,31.014744 
	C170.866882,32.236427 171.294464,33.141346 171.834686,33.973099 
	C173.138580,35.980572 173.831589,37.707760 171.133743,39.349598 
	C168.457138,40.978504 167.271439,39.620869 166.044113,37.535099 
	C165.342545,36.342861 164.364929,35.313065 163.511597,34.210129 
	C163.026443,34.465462 162.541290,34.720795 162.056122,34.976128 
	C162.954880,36.739979 163.777344,38.547909 164.766510,40.259506 
	C167.881256,45.649200 167.886475,45.701069 161.308304,49.302433 
	C158.274780,44.155525 155.120026,39.005627 152.258911,33.697464 
	C151.892685,33.018005 152.729813,31.017563 153.561752,30.473379 
	C159.109665,26.844397 164.799744,23.431892 170.460617,19.976892 
	C172.901672,18.487038 174.720657,18.986431 176.173370,21.573137 
	C178.120316,25.039837 180.619675,28.232971 182.225555,31.836063 
	C182.848328,33.233364 181.679825,35.429016 181.327347,37.260979 
	C179.623001,36.615540 177.614655,36.330952 176.299744,35.223232 
	C174.982986,34.113956 174.553818,31.999680 173.335754,30.700912 
	C172.843842,30.176399 171.290894,30.646971 170.304443,31.014744 
z"/>
<path fill="#423A30" opacity="1.000000" stroke="none" 
	d="
M343.267395,16.989708 
	C347.234222,16.995443 350.788635,16.650406 354.206635,17.182259 
	C355.553223,17.391794 357.092072,19.407177 357.547546,20.903378 
	C357.748108,21.562193 355.589905,23.664640 354.281219,23.904734 
	C351.638641,24.389555 348.844666,24.049227 346.113129,24.049227 
	C345.996613,24.656977 345.880127,25.264725 345.763611,25.872475 
	C347.161041,26.308626 348.547913,27.063797 349.958221,27.110510 
	C352.434052,27.192516 354.140778,27.587553 354.148254,30.636717 
	C354.155914,33.770348 352.324371,34.092930 349.897430,34.038494 
	C348.644531,34.010395 347.385071,34.274456 346.128571,34.406506 
	C346.079834,34.890694 346.031128,35.374878 345.982391,35.859066 
	C348.487122,36.159279 350.986755,36.640087 353.498016,36.711494 
	C356.292877,36.790966 357.877502,37.650047 357.833252,40.768543 
	C357.788177,43.945583 355.714996,44.025421 353.432953,44.152748 
	C337.535522,45.039738 337.526276,45.049782 337.140869,29.403460 
	C337.083527,27.075535 337.294922,24.736765 337.160034,22.415911 
	C336.921875,18.317087 338.713501,16.505184 343.267395,16.989708 
z"/>
<path fill="#423A30" opacity="1.000000" stroke="none" 
	d="
M202.104462,79.863121 
	C202.066788,77.022438 202.166290,74.721565 205.526917,74.545135 
	C208.008209,74.414871 209.307831,75.000954 210.055573,77.798294 
	C211.125595,81.801323 216.006210,82.525795 218.696259,79.295921 
	C219.814438,77.953331 220.421783,76.185257 221.421631,74.310219 
	C219.722687,73.193954 218.443329,72.154625 217.001190,71.447098 
	C213.972061,69.960960 214.096710,67.963951 215.452301,65.313164 
	C217.011505,62.264229 218.937332,62.914646 221.155396,64.293259 
	C221.859024,64.730576 222.732941,64.944328 223.341751,65.475105 
	C226.162552,67.934395 233.128174,67.836349 231.843094,72.128433 
	C229.780548,79.017281 226.805389,86.690407 218.990295,89.558395 
	C213.616196,91.530579 208.368988,89.744751 204.352570,85.676697 
	C203.087952,84.395821 202.857620,82.093796 202.104462,79.863121 
z"/>
<path fill="#423A30" opacity="1.000000" stroke="none" 
	d="
M392.721497,33.701973 
	C395.330505,30.025032 397.779572,26.680235 400.118744,23.260288 
	C401.965240,20.560705 403.916412,20.801023 406.434906,22.416086 
	C409.068298,24.104843 408.311829,25.908682 407.166260,27.898590 
	C406.349609,29.317120 405.464661,30.696327 404.397369,32.440968 
	C408.397797,35.420773 412.158691,38.367767 416.075775,41.090092 
	C418.811615,42.991451 418.616180,44.955975 416.934082,47.390667 
	C415.074860,50.081738 413.232147,49.351620 411.078369,47.773300 
	C407.340912,45.034431 403.494385,42.444397 399.241608,39.476521 
	C397.998810,40.960884 396.749359,42.219322 395.777130,43.664265 
	C393.894897,46.461632 391.980255,46.079548 389.555878,44.302032 
	C387.141052,42.531502 387.517975,40.865044 389.048706,38.861813 
	C390.256134,37.281704 391.362793,35.624611 392.721497,33.701973 
z"/>
<path fill="#423A30" opacity="1.000000" stroke="none" 
	d="
M271.486389,83.196068 
	C272.019287,81.986900 272.903809,80.259033 273.496246,80.353966 
	C275.935638,80.744843 278.483246,81.347221 280.593689,82.562126 
	C281.805603,83.259781 282.255737,85.280792 283.616547,87.726418 
	C285.682800,80.604507 290.120422,79.667648 296.640137,81.787674 
	C295.114227,84.061951 293.853607,86.230637 292.313202,88.177963 
	C288.826447,92.585678 286.237549,97.187134 286.927032,103.151337 
	C287.270142,106.119278 286.238281,108.385185 282.487701,108.144592 
	C279.019653,107.922127 278.325287,105.841103 278.860229,103.018852 
	C280.368683,95.060234 275.365601,89.545334 271.486389,83.196068 
z"/>
<path fill="#423A30" opacity="1.000000" stroke="none" 
	d="
M530.909058,45.923416 
	C533.190125,43.742474 534.983704,41.418564 537.329041,40.019459 
	C538.617493,39.250828 540.835327,40.039997 542.634094,40.126778 
	C542.185303,41.719074 542.176086,43.680588 541.206360,44.835381 
	C538.131653,48.496658 534.698303,51.856739 531.302246,55.440243 
	C534.690247,59.156933 538.100159,62.536194 541.016418,66.298111 
	C542.000671,67.567772 541.733582,69.807518 542.038330,71.603897 
	C540.108215,71.270569 537.646790,71.572800 536.346741,70.485886 
	C532.293213,67.096848 528.673401,63.188099 524.897156,59.468994 
	C522.476013,57.084511 522.327515,54.466774 524.567810,51.983688 
	C526.442261,49.906075 528.612427,48.095284 530.909058,45.923416 
z"/>
<path fill="#423A30" opacity="1.000000" stroke="none" 
	d="
M45.106564,57.969559 
	C40.946754,62.298855 37.152859,66.527634 32.881866,70.201805 
	C31.474976,71.412102 28.834398,71.188309 26.757933,71.620262 
	C27.159369,69.673927 26.980680,67.276085 28.075499,65.869408 
	C30.895250,62.246449 34.278740,59.062248 38.622818,54.441345 
	C34.734634,51.095940 30.930269,48.113415 27.535597,44.720936 
	C26.544476,43.730453 26.720814,41.571754 26.362030,39.948524 
	C28.048258,39.883400 30.382996,39.071865 31.311640,39.878704 
	C36.047676,43.993526 40.542477,48.413040 44.815998,53.010113 
	C45.660496,53.918541 45.164478,56.073132 45.106564,57.969559 
z"/>
<path fill="#423A30" opacity="1.000000" stroke="none" 
	d="
M26.005249,52.154984 
	C27.626085,56.485706 26.784967,60.219765 23.036100,61.863899 
	C20.711546,62.883377 16.620810,62.879280 14.888931,61.444405 
	C12.962777,59.848568 11.880733,55.991142 12.205789,53.335499 
	C12.442635,51.400505 15.275807,49.074497 17.454014,48.249382 
	C20.858860,46.959602 23.937786,48.503578 26.005249,52.154984 
z"/>
<path fill="#423A30" opacity="1.000000" stroke="none" 
	d="
M557.095947,54.284798 
	C556.711792,60.653130 553.576172,63.714977 548.575500,63.047371 
	C544.469482,62.499207 541.499634,58.611248 542.053650,54.509068 
	C542.631287,50.231495 546.942261,46.722996 551.011353,48.184921 
	C553.401062,49.043468 555.068787,51.911800 557.095947,54.284798 
z"/>
<path fill="#423A30" opacity="1.000000" stroke="none" 
	d="
M53.719139,31.069202 
	C51.937523,26.486944 54.858936,25.211580 57.275623,27.197706 
	C63.102055,31.986073 68.199265,37.676460 73.412399,43.172077 
	C73.898155,43.684162 73.351387,46.262589 72.876976,46.392254 
	C71.521660,46.762684 69.396080,46.957645 68.565514,46.172367 
	C63.525501,41.407192 58.761951,36.349606 53.719139,31.069202 
z"/>
<path fill="#423A30" opacity="1.000000" stroke="none" 
	d="
M79.416649,41.579742 
	C76.186722,38.224323 73.051437,35.246704 70.314621,31.939352 
	C69.430679,30.871136 69.593697,28.936577 69.277779,27.398325 
	C70.957901,27.453981 73.270981,26.818253 74.212738,27.680429 
	C79.326973,32.362473 84.180229,37.342075 88.907768,42.419937 
	C89.583549,43.145786 89.573021,45.783215 89.031822,46.103771 
	C87.915169,46.765182 85.888908,47.037701 84.845284,46.428268 
	C82.890343,45.286671 81.368164,43.403973 79.416649,41.579742 
z"/>
<path fill="#423A30" opacity="1.000000" stroke="none" 
	d="
M87.318680,33.529671 
	C86.532890,32.419979 85.690720,31.660103 85.491669,30.758278 
	C85.234200,29.591759 85.022057,27.720991 85.642632,27.229500 
	C86.429840,26.606035 88.308167,26.621618 89.295837,27.148783 
	C91.160873,28.144249 92.871750,29.554770 94.385811,31.055923 
	C97.793251,34.434338 101.232071,37.819466 104.237305,41.541618 
	C105.131470,42.649094 104.626526,44.886192 104.762642,46.605698 
	C103.034424,46.300304 100.799835,46.574635 99.668221,45.586216 
	C95.432770,41.886692 91.558128,37.774090 87.318680,33.529671 
z"/>
<path fill="#423A30" opacity="1.000000" stroke="none" 
	d="
M482.004639,32.862694 
	C477.561615,37.356243 473.458588,41.702667 468.993958,45.638912 
	C467.905640,46.598408 465.630005,46.211117 463.900269,46.443062 
	C464.052277,44.842773 463.594299,42.689369 464.459198,41.735516 
	C468.785706,36.964127 473.340912,32.378094 478.091980,28.028700 
	C479.311523,26.912264 481.533752,26.891077 483.295349,26.366730 
	C483.636139,26.746361 483.976929,27.125994 484.317719,27.505627 
	C483.615662,29.191961 482.913605,30.878298 482.004639,32.862694 
z"/>
<path fill="#423A30" opacity="1.000000" stroke="none" 
	d="
M92.649460,82.725006 
	C90.084473,83.678658 87.785751,84.388428 85.487015,85.098198 
	C86.364769,82.644180 86.656998,79.689842 88.239410,77.837944 
	C91.780006,73.694374 95.819672,69.930702 99.983864,66.398773 
	C101.045326,65.498482 103.331680,66.042343 105.055244,65.922668 
	C104.723389,67.642868 104.949615,69.842094 103.958672,70.996567 
	C100.505157,75.020004 96.630371,78.681847 92.649460,82.725006 
z"/>
<path fill="#423A30" opacity="1.000000" stroke="none" 
	d="
M84.700272,74.678520 
	C81.094116,78.141998 77.856186,81.494865 74.300842,84.468185 
	C73.269203,85.330940 71.328590,85.106781 69.804657,85.380882 
	C69.901199,83.718307 69.334633,81.455086 70.205376,80.493790 
	C74.758934,75.466682 79.585358,70.671036 84.557281,66.053749 
	C85.404839,65.266655 87.418373,65.735077 88.893250,65.623489 
	C88.834335,67.233170 89.233437,69.061226 88.597221,70.395668 
	C87.850372,71.962158 86.203888,73.099739 84.700272,74.678520 
z"/>
<path fill="#423A30" opacity="1.000000" stroke="none" 
	d="
M492.312164,29.299175 
	C493.373749,28.473881 494.111908,27.532299 494.987915,27.379160 
	C496.487000,27.117086 498.072357,27.348593 499.621490,27.372826 
	C499.380920,28.765509 499.626526,30.611259 498.820099,31.476549 
	C493.973938,36.676468 488.959747,41.729294 483.787994,46.604515 
	C483.128082,47.226612 480.761261,47.007534 480.031799,46.302364 
	C479.358246,45.651318 479.247131,43.323036 479.879730,42.595234 
	C483.780701,38.107079 487.962402,33.862900 492.312164,29.299175 
z"/>
<path fill="#423A30" opacity="1.000000" stroke="none" 
	d="
M71.107681,64.800171 
	C73.867485,65.852341 75.119591,67.684334 73.130859,69.804985 
	C68.375832,74.875458 63.420506,79.771217 58.318237,84.491249 
	C57.362991,85.374931 55.347942,85.112984 53.821972,85.379730 
	C53.930141,83.713783 53.370117,81.390884 54.256138,80.489700 
	C59.560352,75.094749 65.197456,70.027084 71.107681,64.800171 
z"/>
<path fill="#423A30" opacity="1.000000" stroke="none" 
	d="
M474.210388,80.814133 
	C470.830658,77.350578 467.500000,74.302132 464.691315,70.831276 
	C463.762573,69.683586 464.179596,67.446938 463.981293,65.708176 
	C465.587585,65.877251 467.731995,65.444756 468.708344,66.318092 
	C473.274445,70.402222 477.714996,74.673401 481.758301,79.266922 
	C482.974060,80.648148 482.763855,83.284531 483.206909,85.345917 
	C481.279755,84.805824 479.266388,84.459724 477.456543,83.655586 
	C476.302704,83.142914 475.450378,81.951630 474.210388,80.814133 
z"/>
<path fill="#423A30" opacity="1.000000" stroke="none" 
	d="
M509.565460,37.554535 
	C506.562408,40.440937 503.980225,43.301468 500.972687,45.607182 
	C499.773834,46.526295 497.634888,46.219170 495.923889,46.470261 
	C496.029877,44.872398 495.505005,42.703335 496.347778,41.772614 
	C500.672852,36.996067 505.209259,32.381256 510.005951,28.082748 
	C511.157928,27.050369 513.582520,27.438030 515.421814,27.172619 
	C514.992371,28.950996 514.918335,30.934296 514.041748,32.454891 
	C512.990662,34.278114 511.254974,35.706684 509.565460,37.554535 
z"/>
<path fill="#423A30" opacity="1.000000" stroke="none" 
	d="
M483.285156,73.666771 
	C481.483429,71.062057 476.633484,69.274063 480.107544,65.898224 
	C483.338348,62.758724 485.576416,67.035904 487.633606,68.926651 
	C491.408905,72.396477 495.025452,76.086838 498.299438,80.025078 
	C499.277039,81.200996 498.893219,83.508690 499.133179,85.297852 
	C497.492615,84.973572 495.403503,85.175560 494.293182,84.229179 
	C490.520203,81.013390 487.092926,77.392036 483.285156,73.666771 
z"/>
<path fill="#423A30" opacity="1.000000" stroke="none" 
	d="
M502.850098,68.033257 
	C506.701141,71.954216 510.486298,75.459930 513.768799,79.385872 
	C514.896912,80.735107 514.769470,83.134087 515.215637,85.053505 
	C513.317261,84.673508 510.875763,84.910057 509.618347,83.802414 
	C505.154785,79.870529 500.926880,75.628387 496.993530,71.165497 
	C495.929810,69.958542 496.221252,67.557220 495.890686,65.704117 
	C497.611420,65.976242 499.351471,66.166557 501.042236,66.565620 
	C501.620697,66.702156 502.075684,67.362053 502.850098,68.033257 
z"/>
<path fill="#423A30" opacity="1.000000" stroke="none" 
	d="
M244.610596,90.721100 
	C244.583008,89.875435 244.588455,89.376640 244.699402,88.902527 
	C245.490555,85.522308 247.719193,83.498299 251.064178,84.256653 
	C252.890427,84.670708 255.863251,87.097359 255.657074,88.024323 
	C255.128036,90.402885 253.587906,93.316757 251.575699,94.423576 
	C248.699326,96.005730 245.841721,94.594246 244.610596,90.721100 
z"/>
<path fill="#423A30" opacity="1.000000" stroke="none" 
	d="
M310.939575,29.983143 
	C309.527283,29.651680 307.503296,29.115973 307.533722,28.751850 
	C307.685913,26.929638 307.951233,24.782654 309.054871,23.513300 
	C309.617645,22.866066 312.460541,23.336395 313.450409,24.221390 
	C314.141235,24.839003 313.625854,27.066326 313.264740,28.476139 
	C313.113190,29.067822 311.968414,29.405088 310.939575,29.983143 
z"/>
<path fill="#423A30" opacity="1.000000" stroke="none" 
	d="
M228.796722,27.728779 
	C228.545563,24.485720 229.544052,22.452181 232.652054,23.343060 
	C233.872040,23.692759 234.622284,25.681244 235.586456,26.923405 
	C233.558594,28.083302 231.530716,29.243196 229.502838,30.403086 
	C229.268845,29.646494 229.034866,28.889904 228.796722,27.728779 
z"/>
</svg>