<svg version="1.1" id="Layer_1" xmlns="http://www.w3.org/2000/svg" xmlns:xlink="http://www.w3.org/1999/xlink" x="0px" y="0px"
	 width="100%" viewBox="0 0 280 302" enable-background="new 0 0 280 302" xml:space="preserve">
<path fill="none" opacity="1.000000" stroke="#000000" stroke-linecap="round" stroke-linejoin="round" stroke-width="6.000000"
	d="
M183.500000,262.000000 
	C188.530731,262.130463 192.022354,258.627808 195.952118,256.414978 
	C211.568451,247.621567 227.083527,238.639847 242.469604,229.449127 
	C252.154251,223.664062 257.713989,215.501266 257.606140,203.499054 
	C257.302277,169.668442 257.423645,135.833054 257.542023,102.000145 
	C257.582672,90.378624 252.202866,82.178024 242.489349,76.518265 
	C224.359741,65.954681 206.152603,55.524246 188.005051,44.991302 
	C176.311493,38.204292 164.886154,30.916004 152.932098,24.629114 
	C142.968689,19.389147 133.116180,21.169516 123.451302,26.918131 
	C101.438980,40.010944 79.102898,52.558411 57.034164,65.557999 
	C49.179504,70.184792 40.788837,73.890404 33.478180,79.471420 
	C25.985670,85.191261 22.859386,92.583786 22.917488,102.000511 
	C23.127262,135.999222 23.163822,170.001221 22.910736,203.999329 
	C22.822697,215.826004 28.006847,223.787476 37.970608,229.550812 
	C54.774254,239.270523 71.488930,249.136032 88.462402,258.567657 
	C101.650467,265.895874 114.335587,274.134796 127.577797,281.357361 
	C133.177017,284.411285 139.241364,286.280853 146.103867,282.699005 
	C151.798645,279.726685 152.749741,275.192902 152.947098,269.997986 
	C153.440796,257.004089 153.743118,244.001389 153.979401,230.999619 
	C154.236832,216.834610 153.630829,202.612732 154.713058,188.516357 
	C155.648560,176.330994 154.841171,164.143875 155.934494,151.994110 
	C156.187988,149.177032 157.156097,148.080261 159.997223,147.942673 
	C165.602356,147.671204 170.409378,145.273270 174.479202,141.477692 
	C176.165848,139.904709 177.958679,138.561874 179.994293,137.489166 
	C184.424149,135.154755 188.853577,136.112152 190.351639,140.550079 
	C191.515976,143.999435 194.022400,144.194687 196.507034,144.423721 
	C201.482178,144.882370 206.514130,144.732483 211.503220,144.823761 
	C218.160019,144.945541 221.166199,140.518692 221.074844,135.498642 
	C220.847458,123.002777 221.039383,110.499825 220.983582,98.000076 
	C220.955154,91.635674 217.750214,88.505669 211.500000,88.500854 
	C206.166672,88.496750 200.829147,88.626251 195.501663,88.449745 
	C192.591400,88.353310 190.838287,89.398865 189.446960,91.971313 
	C186.519470,97.383926 184.549484,97.750290 178.994843,94.508835 
	C178.031219,93.946503 176.745377,93.733421 176.039673,92.963631 
	C169.486816,85.815781 161.206558,84.446419 151.995316,84.906044 
	C142.016006,85.404007 131.832291,84.036140 122.035515,85.489433 
	C102.673103,88.361725 87.555054,98.816475 76.517677,115.012047 
	C73.732918,119.098228 70.904678,123.194321 68.593674,127.549706 
	C67.095490,130.373230 66.138008,133.618286 67.000000,137.000000 
"/>
<path fill="none" opacity="1.000000" stroke="#000000" stroke-linecap="round" stroke-linejoin="round" stroke-width="6.000000"
	d="
M107.000000,124.250000 
	C102.093811,125.792435 96.920776,124.260628 92.003716,125.514557 
	C84.624939,127.396271 78.556557,131.971756 71.867279,135.227295 
	C65.441711,138.354477 62.592140,143.642578 59.250000,149.000000 
"/>
</svg>